<mxfile host="app.diagrams.net" modified="2023-03-14T12:21:51.036Z" agent="5.0 (Windows NT 10.0; Win64; x64) AppleWebKit/537.36 (KHTML, like Gecko) Chrome/110.0.0.0 Safari/537.36 Edg/110.0.1587.69" etag="6f5RqCMn1k3dvH8nNlwc" version="21.0.6" type="github">
  <diagram name="Page-1" id="p_bNvNf1fC7xYZftuYxT">
    <mxGraphModel dx="2750" dy="1030" grid="1" gridSize="10" guides="1" tooltips="1" connect="1" arrows="1" fold="1" page="1" pageScale="1" pageWidth="850" pageHeight="1100" math="0" shadow="0">
      <root>
        <mxCell id="0" />
        <mxCell id="1" parent="0" />
        <mxCell id="PqVz7o-SFoWiN2PgBtpK-16" value="" style="shape=table;startSize=0;container=1;collapsible=0;childLayout=tableLayout;" vertex="1" parent="1">
          <mxGeometry x="-710" y="150" width="349.9999999999999" height="40" as="geometry" />
        </mxCell>
        <mxCell id="PqVz7o-SFoWiN2PgBtpK-17" value="" style="shape=tableRow;horizontal=0;startSize=0;swimlaneHead=0;swimlaneBody=0;strokeColor=inherit;top=0;left=0;bottom=0;right=0;collapsible=0;dropTarget=0;fillColor=none;points=[[0,0.5],[1,0.5]];portConstraint=eastwest;" vertex="1" parent="PqVz7o-SFoWiN2PgBtpK-16">
          <mxGeometry width="349.9999999999999" height="40" as="geometry" />
        </mxCell>
        <mxCell id="PqVz7o-SFoWiN2PgBtpK-18" value="&lt;u&gt;Postal_code&lt;/u&gt;" style="shape=partialRectangle;html=1;whiteSpace=wrap;connectable=0;strokeColor=inherit;overflow=hidden;fillColor=none;top=0;left=0;bottom=0;right=0;pointerEvents=1;" vertex="1" parent="PqVz7o-SFoWiN2PgBtpK-17">
          <mxGeometry width="90" height="40" as="geometry">
            <mxRectangle width="90" height="40" as="alternateBounds" />
          </mxGeometry>
        </mxCell>
        <mxCell id="PqVz7o-SFoWiN2PgBtpK-19" value="State" style="shape=partialRectangle;html=1;whiteSpace=wrap;connectable=0;strokeColor=inherit;overflow=hidden;fillColor=none;top=0;left=0;bottom=0;right=0;pointerEvents=1;" vertex="1" parent="PqVz7o-SFoWiN2PgBtpK-17">
          <mxGeometry x="90" width="50" height="40" as="geometry">
            <mxRectangle width="50" height="40" as="alternateBounds" />
          </mxGeometry>
        </mxCell>
        <mxCell id="PqVz7o-SFoWiN2PgBtpK-20" value="City" style="shape=partialRectangle;html=1;whiteSpace=wrap;connectable=0;strokeColor=inherit;overflow=hidden;fillColor=none;top=0;left=0;bottom=0;right=0;pointerEvents=1;" vertex="1" parent="PqVz7o-SFoWiN2PgBtpK-17">
          <mxGeometry x="140" width="50" height="40" as="geometry">
            <mxRectangle width="50" height="40" as="alternateBounds" />
          </mxGeometry>
        </mxCell>
        <mxCell id="PqVz7o-SFoWiN2PgBtpK-21" value="Latitude" style="shape=partialRectangle;html=1;whiteSpace=wrap;connectable=0;strokeColor=inherit;overflow=hidden;fillColor=none;top=0;left=0;bottom=0;right=0;pointerEvents=1;" vertex="1" parent="PqVz7o-SFoWiN2PgBtpK-17">
          <mxGeometry x="190" width="80" height="40" as="geometry">
            <mxRectangle width="80" height="40" as="alternateBounds" />
          </mxGeometry>
        </mxCell>
        <mxCell id="PqVz7o-SFoWiN2PgBtpK-22" value="Longitude" style="shape=partialRectangle;html=1;whiteSpace=wrap;connectable=0;strokeColor=inherit;overflow=hidden;fillColor=none;top=0;left=0;bottom=0;right=0;pointerEvents=1;" vertex="1" parent="PqVz7o-SFoWiN2PgBtpK-17">
          <mxGeometry x="270" width="80" height="40" as="geometry">
            <mxRectangle width="80" height="40" as="alternateBounds" />
          </mxGeometry>
        </mxCell>
        <mxCell id="PqVz7o-SFoWiN2PgBtpK-23" value="GeoLocation" style="text;html=1;align=center;verticalAlign=middle;resizable=0;points=[];autosize=1;strokeColor=none;fillColor=none;" vertex="1" parent="1">
          <mxGeometry x="-720" y="120" width="90" height="30" as="geometry" />
        </mxCell>
        <mxCell id="PqVz7o-SFoWiN2PgBtpK-24" value="" style="shape=table;startSize=0;container=1;collapsible=0;childLayout=tableLayout;" vertex="1" parent="1">
          <mxGeometry x="-710" y="230" width="520" height="40" as="geometry" />
        </mxCell>
        <mxCell id="PqVz7o-SFoWiN2PgBtpK-25" value="" style="shape=tableRow;horizontal=0;startSize=0;swimlaneHead=0;swimlaneBody=0;strokeColor=inherit;top=0;left=0;bottom=0;right=0;collapsible=0;dropTarget=0;fillColor=none;points=[[0,0.5],[1,0.5]];portConstraint=eastwest;" vertex="1" parent="PqVz7o-SFoWiN2PgBtpK-24">
          <mxGeometry width="520" height="40" as="geometry" />
        </mxCell>
        <mxCell id="PqVz7o-SFoWiN2PgBtpK-26" value="&lt;u&gt;Email&lt;/u&gt;" style="shape=partialRectangle;html=1;whiteSpace=wrap;connectable=0;strokeColor=inherit;overflow=hidden;fillColor=none;top=0;left=0;bottom=0;right=0;pointerEvents=1;" vertex="1" parent="PqVz7o-SFoWiN2PgBtpK-25">
          <mxGeometry width="60" height="40" as="geometry">
            <mxRectangle width="60" height="40" as="alternateBounds" />
          </mxGeometry>
        </mxCell>
        <mxCell id="PqVz7o-SFoWiN2PgBtpK-27" value="Heating_degree" style="shape=partialRectangle;html=1;whiteSpace=wrap;connectable=0;strokeColor=inherit;overflow=hidden;fillColor=none;top=0;left=0;bottom=0;right=0;pointerEvents=1;" vertex="1" parent="PqVz7o-SFoWiN2PgBtpK-25">
          <mxGeometry x="60" width="100" height="40" as="geometry">
            <mxRectangle width="100" height="40" as="alternateBounds" />
          </mxGeometry>
        </mxCell>
        <mxCell id="PqVz7o-SFoWiN2PgBtpK-28" value="Cooling_degree" style="shape=partialRectangle;html=1;whiteSpace=wrap;connectable=0;strokeColor=inherit;overflow=hidden;fillColor=none;top=0;left=0;bottom=0;right=0;pointerEvents=1;" vertex="1" parent="PqVz7o-SFoWiN2PgBtpK-25">
          <mxGeometry x="160" width="100" height="40" as="geometry">
            <mxRectangle width="100" height="40" as="alternateBounds" />
          </mxGeometry>
        </mxCell>
        <mxCell id="PqVz7o-SFoWiN2PgBtpK-29" value="Postal_code" style="shape=partialRectangle;html=1;whiteSpace=wrap;connectable=0;strokeColor=inherit;overflow=hidden;fillColor=none;top=0;left=0;bottom=0;right=0;pointerEvents=1;" vertex="1" parent="PqVz7o-SFoWiN2PgBtpK-25">
          <mxGeometry x="260" width="80" height="40" as="geometry">
            <mxRectangle width="80" height="40" as="alternateBounds" />
          </mxGeometry>
        </mxCell>
        <mxCell id="PqVz7o-SFoWiN2PgBtpK-30" value="Square_footage" style="shape=partialRectangle;html=1;whiteSpace=wrap;connectable=0;strokeColor=inherit;overflow=hidden;fillColor=none;top=0;left=0;bottom=0;right=0;pointerEvents=1;" vertex="1" parent="PqVz7o-SFoWiN2PgBtpK-25">
          <mxGeometry x="340" width="100" height="40" as="geometry">
            <mxRectangle width="100" height="40" as="alternateBounds" />
          </mxGeometry>
        </mxCell>
        <mxCell id="PqVz7o-SFoWiN2PgBtpK-31" value="House_type" style="shape=partialRectangle;html=1;whiteSpace=wrap;connectable=0;strokeColor=inherit;overflow=hidden;fillColor=none;top=0;left=0;bottom=0;right=0;pointerEvents=1;" vertex="1" parent="PqVz7o-SFoWiN2PgBtpK-25">
          <mxGeometry x="440" width="80" height="40" as="geometry">
            <mxRectangle width="80" height="40" as="alternateBounds" />
          </mxGeometry>
        </mxCell>
        <mxCell id="PqVz7o-SFoWiN2PgBtpK-32" value="Household" style="text;html=1;align=center;verticalAlign=middle;resizable=0;points=[];autosize=1;strokeColor=none;fillColor=none;" vertex="1" parent="1">
          <mxGeometry x="-720" y="200" width="80" height="30" as="geometry" />
        </mxCell>
        <mxCell id="PqVz7o-SFoWiN2PgBtpK-33" value="" style="shape=table;startSize=0;container=1;collapsible=0;childLayout=tableLayout;" vertex="1" parent="1">
          <mxGeometry x="-710" y="310" width="150" height="40" as="geometry" />
        </mxCell>
        <mxCell id="PqVz7o-SFoWiN2PgBtpK-34" value="" style="shape=tableRow;horizontal=0;startSize=0;swimlaneHead=0;swimlaneBody=0;strokeColor=inherit;top=0;left=0;bottom=0;right=0;collapsible=0;dropTarget=0;fillColor=none;points=[[0,0.5],[1,0.5]];portConstraint=eastwest;" vertex="1" parent="PqVz7o-SFoWiN2PgBtpK-33">
          <mxGeometry width="150" height="40" as="geometry" />
        </mxCell>
        <mxCell id="PqVz7o-SFoWiN2PgBtpK-35" value="&lt;u&gt;Email&lt;/u&gt;" style="shape=partialRectangle;html=1;whiteSpace=wrap;connectable=0;strokeColor=inherit;overflow=hidden;fillColor=none;top=0;left=0;bottom=0;right=0;pointerEvents=1;" vertex="1" parent="PqVz7o-SFoWiN2PgBtpK-34">
          <mxGeometry width="60" height="40" as="geometry">
            <mxRectangle width="60" height="40" as="alternateBounds" />
          </mxGeometry>
        </mxCell>
        <mxCell id="PqVz7o-SFoWiN2PgBtpK-36" value="&lt;u&gt;Public_utility&lt;/u&gt;" style="shape=partialRectangle;html=1;whiteSpace=wrap;connectable=0;strokeColor=inherit;overflow=hidden;fillColor=none;top=0;left=0;bottom=0;right=0;pointerEvents=1;" vertex="1" parent="PqVz7o-SFoWiN2PgBtpK-34">
          <mxGeometry x="60" width="90" height="40" as="geometry">
            <mxRectangle width="90" height="40" as="alternateBounds" />
          </mxGeometry>
        </mxCell>
        <mxCell id="PqVz7o-SFoWiN2PgBtpK-37" value="Household_PublicUtility" style="text;html=1;align=center;verticalAlign=middle;resizable=0;points=[];autosize=1;strokeColor=none;fillColor=none;" vertex="1" parent="1">
          <mxGeometry x="-720" y="280" width="150" height="30" as="geometry" />
        </mxCell>
        <mxCell id="PqVz7o-SFoWiN2PgBtpK-41" value="" style="curved=1;endArrow=classic;html=1;rounded=0;fillColor=#ffff88;strokeColor=#CCCC00;strokeWidth=2;" edge="1" parent="1">
          <mxGeometry width="50" height="50" relative="1" as="geometry">
            <mxPoint x="-410" y="230" as="sourcePoint" />
            <mxPoint x="-650" y="190" as="targetPoint" />
            <Array as="points">
              <mxPoint x="-460" y="220" />
              <mxPoint x="-550" y="210" />
              <mxPoint x="-630" y="200" />
            </Array>
          </mxGeometry>
        </mxCell>
        <mxCell id="PqVz7o-SFoWiN2PgBtpK-42" value="" style="shape=table;startSize=0;container=1;collapsible=0;childLayout=tableLayout;" vertex="1" parent="1">
          <mxGeometry x="-710" y="390" width="439.99999999999955" height="40" as="geometry" />
        </mxCell>
        <mxCell id="PqVz7o-SFoWiN2PgBtpK-43" value="" style="shape=tableRow;horizontal=0;startSize=0;swimlaneHead=0;swimlaneBody=0;strokeColor=inherit;top=0;left=0;bottom=0;right=0;collapsible=0;dropTarget=0;fillColor=none;points=[[0,0.5],[1,0.5]];portConstraint=eastwest;" vertex="1" parent="PqVz7o-SFoWiN2PgBtpK-42">
          <mxGeometry width="439.99999999999955" height="40" as="geometry" />
        </mxCell>
        <mxCell id="PqVz7o-SFoWiN2PgBtpK-44" value="&lt;u&gt;Email&lt;/u&gt;" style="shape=partialRectangle;html=1;whiteSpace=wrap;connectable=0;strokeColor=inherit;overflow=hidden;fillColor=none;top=0;left=0;bottom=0;right=0;pointerEvents=1;" vertex="1" parent="PqVz7o-SFoWiN2PgBtpK-43">
          <mxGeometry width="60" height="40" as="geometry">
            <mxRectangle width="60" height="40" as="alternateBounds" />
          </mxGeometry>
        </mxCell>
        <mxCell id="PqVz7o-SFoWiN2PgBtpK-45" value="&lt;u&gt;Input_order&lt;/u&gt;" style="shape=partialRectangle;html=1;whiteSpace=wrap;connectable=0;strokeColor=inherit;overflow=hidden;fillColor=none;top=0;left=0;bottom=0;right=0;pointerEvents=1;" vertex="1" parent="PqVz7o-SFoWiN2PgBtpK-43">
          <mxGeometry x="60" width="80" height="40" as="geometry">
            <mxRectangle width="80" height="40" as="alternateBounds" />
          </mxGeometry>
        </mxCell>
        <mxCell id="PqVz7o-SFoWiN2PgBtpK-46" value="Avg_month_kwh" style="shape=partialRectangle;html=1;whiteSpace=wrap;connectable=0;strokeColor=inherit;overflow=hidden;fillColor=none;top=0;left=0;bottom=0;right=0;pointerEvents=1;" vertex="1" parent="PqVz7o-SFoWiN2PgBtpK-43">
          <mxGeometry x="140" width="100" height="40" as="geometry">
            <mxRectangle width="100" height="40" as="alternateBounds" />
          </mxGeometry>
        </mxCell>
        <mxCell id="PqVz7o-SFoWiN2PgBtpK-47" value="Power_type" style="shape=partialRectangle;html=1;whiteSpace=wrap;connectable=0;strokeColor=inherit;overflow=hidden;fillColor=none;top=0;left=0;bottom=0;right=0;pointerEvents=1;" vertex="1" parent="PqVz7o-SFoWiN2PgBtpK-43">
          <mxGeometry x="240" width="80" height="40" as="geometry">
            <mxRectangle width="80" height="40" as="alternateBounds" />
          </mxGeometry>
        </mxCell>
        <mxCell id="PqVz7o-SFoWiN2PgBtpK-48" value="Battery_capacity" style="shape=partialRectangle;html=1;whiteSpace=wrap;connectable=0;strokeColor=inherit;overflow=hidden;fillColor=none;top=0;left=0;bottom=0;right=0;pointerEvents=1;" vertex="1" parent="PqVz7o-SFoWiN2PgBtpK-43">
          <mxGeometry x="320" width="120" height="40" as="geometry">
            <mxRectangle width="120" height="40" as="alternateBounds" />
          </mxGeometry>
        </mxCell>
        <mxCell id="PqVz7o-SFoWiN2PgBtpK-49" value="PowerGeneration" style="text;html=1;align=center;verticalAlign=middle;resizable=0;points=[];autosize=1;strokeColor=none;fillColor=none;" vertex="1" parent="1">
          <mxGeometry x="-720" y="360" width="120" height="30" as="geometry" />
        </mxCell>
        <mxCell id="PqVz7o-SFoWiN2PgBtpK-61" value="WaterHeater" style="text;html=1;align=center;verticalAlign=middle;resizable=0;points=[];autosize=1;strokeColor=none;fillColor=none;" vertex="1" parent="1">
          <mxGeometry x="-720" y="440" width="90" height="30" as="geometry" />
        </mxCell>
        <mxCell id="PqVz7o-SFoWiN2PgBtpK-62" value="" style="shape=table;startSize=0;container=1;collapsible=0;childLayout=tableLayout;" vertex="1" parent="1">
          <mxGeometry x="-710" y="470" width="640" height="40" as="geometry" />
        </mxCell>
        <mxCell id="PqVz7o-SFoWiN2PgBtpK-63" value="" style="shape=tableRow;horizontal=0;startSize=0;swimlaneHead=0;swimlaneBody=0;strokeColor=inherit;top=0;left=0;bottom=0;right=0;collapsible=0;dropTarget=0;fillColor=none;points=[[0,0.5],[1,0.5]];portConstraint=eastwest;" vertex="1" parent="PqVz7o-SFoWiN2PgBtpK-62">
          <mxGeometry width="640" height="40" as="geometry" />
        </mxCell>
        <mxCell id="PqVz7o-SFoWiN2PgBtpK-64" value="&lt;u&gt;Email&lt;/u&gt;" style="shape=partialRectangle;html=1;whiteSpace=wrap;connectable=0;strokeColor=inherit;overflow=hidden;fillColor=none;top=0;left=0;bottom=0;right=0;pointerEvents=1;" vertex="1" parent="PqVz7o-SFoWiN2PgBtpK-63">
          <mxGeometry width="60" height="40" as="geometry">
            <mxRectangle width="60" height="40" as="alternateBounds" />
          </mxGeometry>
        </mxCell>
        <mxCell id="PqVz7o-SFoWiN2PgBtpK-65" value="&lt;u&gt;Input_order&lt;/u&gt;" style="shape=partialRectangle;html=1;whiteSpace=wrap;connectable=0;strokeColor=inherit;overflow=hidden;fillColor=none;top=0;left=0;bottom=0;right=0;pointerEvents=1;" vertex="1" parent="PqVz7o-SFoWiN2PgBtpK-63">
          <mxGeometry x="60" width="80" height="40" as="geometry">
            <mxRectangle width="80" height="40" as="alternateBounds" />
          </mxGeometry>
        </mxCell>
        <mxCell id="PqVz7o-SFoWiN2PgBtpK-66" value="Btu" style="shape=partialRectangle;html=1;whiteSpace=wrap;connectable=0;strokeColor=inherit;overflow=hidden;fillColor=none;top=0;left=0;bottom=0;right=0;pointerEvents=1;" vertex="1" parent="PqVz7o-SFoWiN2PgBtpK-63">
          <mxGeometry x="140" width="50" height="40" as="geometry">
            <mxRectangle width="50" height="40" as="alternateBounds" />
          </mxGeometry>
        </mxCell>
        <mxCell id="PqVz7o-SFoWiN2PgBtpK-67" value="Manufacturer" style="shape=partialRectangle;html=1;whiteSpace=wrap;connectable=0;strokeColor=inherit;overflow=hidden;fillColor=none;top=0;left=0;bottom=0;right=0;pointerEvents=1;" vertex="1" parent="PqVz7o-SFoWiN2PgBtpK-63">
          <mxGeometry x="190" width="90" height="40" as="geometry">
            <mxRectangle width="90" height="40" as="alternateBounds" />
          </mxGeometry>
        </mxCell>
        <mxCell id="PqVz7o-SFoWiN2PgBtpK-68" value="Model" style="shape=partialRectangle;html=1;whiteSpace=wrap;connectable=0;strokeColor=inherit;overflow=hidden;fillColor=none;top=0;left=0;bottom=0;right=0;pointerEvents=1;" vertex="1" parent="PqVz7o-SFoWiN2PgBtpK-63">
          <mxGeometry x="280" width="60" height="40" as="geometry">
            <mxRectangle width="60" height="40" as="alternateBounds" />
          </mxGeometry>
        </mxCell>
        <mxCell id="PqVz7o-SFoWiN2PgBtpK-69" value="Energy_source" style="shape=partialRectangle;html=1;whiteSpace=wrap;connectable=0;strokeColor=inherit;overflow=hidden;fillColor=none;top=0;left=0;bottom=0;right=0;pointerEvents=1;" vertex="1" parent="PqVz7o-SFoWiN2PgBtpK-63">
          <mxGeometry x="340" width="90" height="40" as="geometry">
            <mxRectangle width="90" height="40" as="alternateBounds" />
          </mxGeometry>
        </mxCell>
        <mxCell id="PqVz7o-SFoWiN2PgBtpK-70" value="Temperature_setting" style="shape=partialRectangle;html=1;whiteSpace=wrap;connectable=0;strokeColor=inherit;overflow=hidden;fillColor=none;top=0;left=0;bottom=0;right=0;pointerEvents=1;" vertex="1" parent="PqVz7o-SFoWiN2PgBtpK-63">
          <mxGeometry x="430" width="130" height="40" as="geometry">
            <mxRectangle width="130" height="40" as="alternateBounds" />
          </mxGeometry>
        </mxCell>
        <mxCell id="PqVz7o-SFoWiN2PgBtpK-71" value="Capacity" style="shape=partialRectangle;html=1;whiteSpace=wrap;connectable=0;strokeColor=inherit;overflow=hidden;fillColor=none;top=0;left=0;bottom=0;right=0;pointerEvents=1;" vertex="1" parent="PqVz7o-SFoWiN2PgBtpK-63">
          <mxGeometry x="560" width="80" height="40" as="geometry">
            <mxRectangle width="80" height="40" as="alternateBounds" />
          </mxGeometry>
        </mxCell>
        <mxCell id="PqVz7o-SFoWiN2PgBtpK-72" value="" style="shape=table;startSize=0;container=1;collapsible=0;childLayout=tableLayout;" vertex="1" parent="1">
          <mxGeometry x="-710" y="550" width="340" height="40" as="geometry" />
        </mxCell>
        <mxCell id="PqVz7o-SFoWiN2PgBtpK-73" value="" style="shape=tableRow;horizontal=0;startSize=0;swimlaneHead=0;swimlaneBody=0;strokeColor=inherit;top=0;left=0;bottom=0;right=0;collapsible=0;dropTarget=0;fillColor=none;points=[[0,0.5],[1,0.5]];portConstraint=eastwest;" vertex="1" parent="PqVz7o-SFoWiN2PgBtpK-72">
          <mxGeometry width="340" height="40" as="geometry" />
        </mxCell>
        <mxCell id="PqVz7o-SFoWiN2PgBtpK-74" value="&lt;u style=&quot;border-color: var(--border-color);&quot;&gt;Email&lt;/u&gt;" style="shape=partialRectangle;html=1;whiteSpace=wrap;connectable=0;strokeColor=inherit;overflow=hidden;fillColor=none;top=0;left=0;bottom=0;right=0;pointerEvents=1;" vertex="1" parent="PqVz7o-SFoWiN2PgBtpK-73">
          <mxGeometry width="60" height="40" as="geometry">
            <mxRectangle width="60" height="40" as="alternateBounds" />
          </mxGeometry>
        </mxCell>
        <mxCell id="PqVz7o-SFoWiN2PgBtpK-75" value="&lt;u style=&quot;border-color: var(--border-color);&quot;&gt;Input_order&lt;/u&gt;" style="shape=partialRectangle;html=1;whiteSpace=wrap;connectable=0;strokeColor=inherit;overflow=hidden;fillColor=none;top=0;left=0;bottom=0;right=0;pointerEvents=1;" vertex="1" parent="PqVz7o-SFoWiN2PgBtpK-73">
          <mxGeometry x="60" width="80" height="40" as="geometry">
            <mxRectangle width="80" height="40" as="alternateBounds" />
          </mxGeometry>
        </mxCell>
        <mxCell id="PqVz7o-SFoWiN2PgBtpK-76" value="Btu" style="shape=partialRectangle;html=1;whiteSpace=wrap;connectable=0;strokeColor=inherit;overflow=hidden;fillColor=none;top=0;left=0;bottom=0;right=0;pointerEvents=1;" vertex="1" parent="PqVz7o-SFoWiN2PgBtpK-73">
          <mxGeometry x="140" width="50" height="40" as="geometry">
            <mxRectangle width="50" height="40" as="alternateBounds" />
          </mxGeometry>
        </mxCell>
        <mxCell id="PqVz7o-SFoWiN2PgBtpK-77" value="Manufacturer" style="shape=partialRectangle;html=1;whiteSpace=wrap;connectable=0;strokeColor=inherit;overflow=hidden;fillColor=none;top=0;left=0;bottom=0;right=0;pointerEvents=1;" vertex="1" parent="PqVz7o-SFoWiN2PgBtpK-73">
          <mxGeometry x="190" width="90" height="40" as="geometry">
            <mxRectangle width="90" height="40" as="alternateBounds" />
          </mxGeometry>
        </mxCell>
        <mxCell id="PqVz7o-SFoWiN2PgBtpK-78" value="Model" style="shape=partialRectangle;html=1;whiteSpace=wrap;connectable=0;strokeColor=inherit;overflow=hidden;fillColor=none;top=0;left=0;bottom=0;right=0;pointerEvents=1;" vertex="1" parent="PqVz7o-SFoWiN2PgBtpK-73">
          <mxGeometry x="280" width="60" height="40" as="geometry">
            <mxRectangle width="60" height="40" as="alternateBounds" />
          </mxGeometry>
        </mxCell>
        <mxCell id="PqVz7o-SFoWiN2PgBtpK-79" value="AirHandler" style="text;html=1;align=center;verticalAlign=middle;resizable=0;points=[];autosize=1;strokeColor=none;fillColor=none;" vertex="1" parent="1">
          <mxGeometry x="-720" y="520" width="80" height="30" as="geometry" />
        </mxCell>
        <mxCell id="PqVz7o-SFoWiN2PgBtpK-80" value="" style="shape=table;startSize=0;container=1;collapsible=0;childLayout=tableLayout;" vertex="1" parent="1">
          <mxGeometry x="-710" y="630" width="190" height="40" as="geometry" />
        </mxCell>
        <mxCell id="PqVz7o-SFoWiN2PgBtpK-81" value="" style="shape=tableRow;horizontal=0;startSize=0;swimlaneHead=0;swimlaneBody=0;strokeColor=inherit;top=0;left=0;bottom=0;right=0;collapsible=0;dropTarget=0;fillColor=none;points=[[0,0.5],[1,0.5]];portConstraint=eastwest;" vertex="1" parent="PqVz7o-SFoWiN2PgBtpK-80">
          <mxGeometry width="190" height="40" as="geometry" />
        </mxCell>
        <mxCell id="PqVz7o-SFoWiN2PgBtpK-82" value="&lt;u style=&quot;border-color: var(--border-color);&quot;&gt;Email&lt;/u&gt;" style="shape=partialRectangle;html=1;whiteSpace=wrap;connectable=0;strokeColor=inherit;overflow=hidden;fillColor=none;top=0;left=0;bottom=0;right=0;pointerEvents=1;" vertex="1" parent="PqVz7o-SFoWiN2PgBtpK-81">
          <mxGeometry width="60" height="40" as="geometry">
            <mxRectangle width="60" height="40" as="alternateBounds" />
          </mxGeometry>
        </mxCell>
        <mxCell id="PqVz7o-SFoWiN2PgBtpK-83" value="&lt;u style=&quot;border-color: var(--border-color);&quot;&gt;Input_order&lt;/u&gt;" style="shape=partialRectangle;html=1;whiteSpace=wrap;connectable=0;strokeColor=inherit;overflow=hidden;fillColor=none;top=0;left=0;bottom=0;right=0;pointerEvents=1;" vertex="1" parent="PqVz7o-SFoWiN2PgBtpK-81">
          <mxGeometry x="60" width="80" height="40" as="geometry">
            <mxRectangle width="80" height="40" as="alternateBounds" />
          </mxGeometry>
        </mxCell>
        <mxCell id="PqVz7o-SFoWiN2PgBtpK-84" value="Eer" style="shape=partialRectangle;html=1;whiteSpace=wrap;connectable=0;strokeColor=inherit;overflow=hidden;fillColor=none;top=0;left=0;bottom=0;right=0;pointerEvents=1;" vertex="1" parent="PqVz7o-SFoWiN2PgBtpK-81">
          <mxGeometry x="140" width="50" height="40" as="geometry">
            <mxRectangle width="50" height="40" as="alternateBounds" />
          </mxGeometry>
        </mxCell>
        <mxCell id="PqVz7o-SFoWiN2PgBtpK-85" value="Heater" style="text;html=1;align=center;verticalAlign=middle;resizable=0;points=[];autosize=1;strokeColor=none;fillColor=none;" vertex="1" parent="1">
          <mxGeometry x="-720" y="680" width="60" height="30" as="geometry" />
        </mxCell>
        <mxCell id="PqVz7o-SFoWiN2PgBtpK-86" value="" style="shape=table;startSize=0;container=1;collapsible=0;childLayout=tableLayout;" vertex="1" parent="1">
          <mxGeometry x="-710" y="710" width="230" height="40" as="geometry" />
        </mxCell>
        <mxCell id="PqVz7o-SFoWiN2PgBtpK-87" value="" style="shape=tableRow;horizontal=0;startSize=0;swimlaneHead=0;swimlaneBody=0;strokeColor=inherit;top=0;left=0;bottom=0;right=0;collapsible=0;dropTarget=0;fillColor=none;points=[[0,0.5],[1,0.5]];portConstraint=eastwest;" vertex="1" parent="PqVz7o-SFoWiN2PgBtpK-86">
          <mxGeometry width="230" height="40" as="geometry" />
        </mxCell>
        <mxCell id="PqVz7o-SFoWiN2PgBtpK-88" value="&lt;u style=&quot;border-color: var(--border-color);&quot;&gt;Email&lt;/u&gt;" style="shape=partialRectangle;html=1;whiteSpace=wrap;connectable=0;strokeColor=inherit;overflow=hidden;fillColor=none;top=0;left=0;bottom=0;right=0;pointerEvents=1;" vertex="1" parent="PqVz7o-SFoWiN2PgBtpK-87">
          <mxGeometry width="60" height="40" as="geometry">
            <mxRectangle width="60" height="40" as="alternateBounds" />
          </mxGeometry>
        </mxCell>
        <mxCell id="PqVz7o-SFoWiN2PgBtpK-89" value="&lt;u style=&quot;border-color: var(--border-color);&quot;&gt;Input_order&lt;/u&gt;" style="shape=partialRectangle;html=1;whiteSpace=wrap;connectable=0;strokeColor=inherit;overflow=hidden;fillColor=none;top=0;left=0;bottom=0;right=0;pointerEvents=1;" vertex="1" parent="PqVz7o-SFoWiN2PgBtpK-87">
          <mxGeometry x="60" width="80" height="40" as="geometry">
            <mxRectangle width="80" height="40" as="alternateBounds" />
          </mxGeometry>
        </mxCell>
        <mxCell id="PqVz7o-SFoWiN2PgBtpK-90" value="Energy_source" style="shape=partialRectangle;html=1;whiteSpace=wrap;connectable=0;strokeColor=inherit;overflow=hidden;fillColor=none;top=0;left=0;bottom=0;right=0;pointerEvents=1;" vertex="1" parent="PqVz7o-SFoWiN2PgBtpK-87">
          <mxGeometry x="140" width="90" height="40" as="geometry">
            <mxRectangle width="90" height="40" as="alternateBounds" />
          </mxGeometry>
        </mxCell>
        <mxCell id="PqVz7o-SFoWiN2PgBtpK-91" value="AirConditioner" style="text;html=1;align=center;verticalAlign=middle;resizable=0;points=[];autosize=1;strokeColor=none;fillColor=none;" vertex="1" parent="1">
          <mxGeometry x="-720" y="600" width="100" height="30" as="geometry" />
        </mxCell>
        <mxCell id="PqVz7o-SFoWiN2PgBtpK-92" value="" style="shape=table;startSize=0;container=1;collapsible=0;childLayout=tableLayout;" vertex="1" parent="1">
          <mxGeometry x="-710" y="790" width="240" height="40" as="geometry" />
        </mxCell>
        <mxCell id="PqVz7o-SFoWiN2PgBtpK-93" value="" style="shape=tableRow;horizontal=0;startSize=0;swimlaneHead=0;swimlaneBody=0;strokeColor=inherit;top=0;left=0;bottom=0;right=0;collapsible=0;dropTarget=0;fillColor=none;points=[[0,0.5],[1,0.5]];portConstraint=eastwest;" vertex="1" parent="PqVz7o-SFoWiN2PgBtpK-92">
          <mxGeometry width="240" height="40" as="geometry" />
        </mxCell>
        <mxCell id="PqVz7o-SFoWiN2PgBtpK-94" value="&lt;u style=&quot;border-color: var(--border-color);&quot;&gt;Email&lt;/u&gt;" style="shape=partialRectangle;html=1;whiteSpace=wrap;connectable=0;strokeColor=inherit;overflow=hidden;fillColor=none;top=0;left=0;bottom=0;right=0;pointerEvents=1;" vertex="1" parent="PqVz7o-SFoWiN2PgBtpK-93">
          <mxGeometry width="60" height="40" as="geometry">
            <mxRectangle width="60" height="40" as="alternateBounds" />
          </mxGeometry>
        </mxCell>
        <mxCell id="PqVz7o-SFoWiN2PgBtpK-95" value="&lt;u style=&quot;border-color: var(--border-color);&quot;&gt;Input_order&lt;/u&gt;" style="shape=partialRectangle;html=1;whiteSpace=wrap;connectable=0;strokeColor=inherit;overflow=hidden;fillColor=none;top=0;left=0;bottom=0;right=0;pointerEvents=1;" vertex="1" parent="PqVz7o-SFoWiN2PgBtpK-93">
          <mxGeometry x="60" width="80" height="40" as="geometry">
            <mxRectangle width="80" height="40" as="alternateBounds" />
          </mxGeometry>
        </mxCell>
        <mxCell id="PqVz7o-SFoWiN2PgBtpK-96" value="HSPF" style="shape=partialRectangle;html=1;whiteSpace=wrap;connectable=0;strokeColor=inherit;overflow=hidden;fillColor=none;top=0;left=0;bottom=0;right=0;pointerEvents=1;" vertex="1" parent="PqVz7o-SFoWiN2PgBtpK-93">
          <mxGeometry x="140" width="50" height="40" as="geometry">
            <mxRectangle width="50" height="40" as="alternateBounds" />
          </mxGeometry>
        </mxCell>
        <mxCell id="PqVz7o-SFoWiN2PgBtpK-97" value="SEER" style="shape=partialRectangle;html=1;whiteSpace=wrap;connectable=0;strokeColor=inherit;overflow=hidden;fillColor=none;top=0;left=0;bottom=0;right=0;pointerEvents=1;" vertex="1" parent="PqVz7o-SFoWiN2PgBtpK-93">
          <mxGeometry x="190" width="50" height="40" as="geometry">
            <mxRectangle width="50" height="40" as="alternateBounds" />
          </mxGeometry>
        </mxCell>
        <mxCell id="PqVz7o-SFoWiN2PgBtpK-98" value="HeatPump" style="text;html=1;align=center;verticalAlign=middle;resizable=0;points=[];autosize=1;strokeColor=none;fillColor=none;" vertex="1" parent="1">
          <mxGeometry x="-720" y="760" width="80" height="30" as="geometry" />
        </mxCell>
        <mxCell id="PqVz7o-SFoWiN2PgBtpK-100" value="" style="endArrow=classic;html=1;rounded=0;entryX=0;entryY=0.5;entryDx=0;entryDy=0;strokeColor=#CCCC00;strokeWidth=2;" edge="1" parent="1" target="PqVz7o-SFoWiN2PgBtpK-25">
          <mxGeometry width="50" height="50" relative="1" as="geometry">
            <mxPoint x="-760" y="250" as="sourcePoint" />
            <mxPoint x="-410" y="470" as="targetPoint" />
          </mxGeometry>
        </mxCell>
        <mxCell id="PqVz7o-SFoWiN2PgBtpK-101" value="" style="endArrow=none;html=1;rounded=0;strokeColor=#CCCC00;strokeWidth=2;" edge="1" parent="1">
          <mxGeometry width="50" height="50" relative="1" as="geometry">
            <mxPoint x="-760" y="810" as="sourcePoint" />
            <mxPoint x="-760" y="580" as="targetPoint" />
          </mxGeometry>
        </mxCell>
        <mxCell id="PqVz7o-SFoWiN2PgBtpK-102" value="" style="endArrow=none;html=1;rounded=0;entryX=0;entryY=0.5;entryDx=0;entryDy=0;strokeColor=#CCCC00;strokeWidth=2;" edge="1" parent="1" target="PqVz7o-SFoWiN2PgBtpK-93">
          <mxGeometry width="50" height="50" relative="1" as="geometry">
            <mxPoint x="-760" y="810" as="sourcePoint" />
            <mxPoint x="-410" y="470" as="targetPoint" />
          </mxGeometry>
        </mxCell>
        <mxCell id="PqVz7o-SFoWiN2PgBtpK-103" value="" style="endArrow=none;html=1;rounded=0;entryX=0;entryY=0.5;entryDx=0;entryDy=0;strokeColor=#CCCC00;strokeWidth=2;" edge="1" parent="1" target="PqVz7o-SFoWiN2PgBtpK-34">
          <mxGeometry width="50" height="50" relative="1" as="geometry">
            <mxPoint x="-760" y="330" as="sourcePoint" />
            <mxPoint x="-460" y="500" as="targetPoint" />
          </mxGeometry>
        </mxCell>
        <mxCell id="PqVz7o-SFoWiN2PgBtpK-104" value="" style="endArrow=none;html=1;rounded=0;entryX=0;entryY=0.5;entryDx=0;entryDy=0;strokeWidth=2;strokeColor=#CCCC00;" edge="1" parent="1" target="PqVz7o-SFoWiN2PgBtpK-43">
          <mxGeometry width="50" height="50" relative="1" as="geometry">
            <mxPoint x="-760" y="410" as="sourcePoint" />
            <mxPoint x="-700" y="340" as="targetPoint" />
          </mxGeometry>
        </mxCell>
        <mxCell id="PqVz7o-SFoWiN2PgBtpK-107" value="" style="endArrow=none;html=1;rounded=0;entryX=0;entryY=0.5;entryDx=0;entryDy=0;strokeColor=#CCCC00;strokeWidth=2;" edge="1" parent="1" target="PqVz7o-SFoWiN2PgBtpK-63">
          <mxGeometry width="50" height="50" relative="1" as="geometry">
            <mxPoint x="-760" y="490" as="sourcePoint" />
            <mxPoint x="-700" y="420" as="targetPoint" />
          </mxGeometry>
        </mxCell>
        <mxCell id="PqVz7o-SFoWiN2PgBtpK-108" value="" style="endArrow=classic;html=1;rounded=0;entryX=0;entryY=0.75;entryDx=0;entryDy=0;strokeWidth=2;strokeColor=#CCCC00;entryPerimeter=0;startArrow=none;startFill=0;endFill=1;" edge="1" parent="1" target="PqVz7o-SFoWiN2PgBtpK-73">
          <mxGeometry width="50" height="50" relative="1" as="geometry">
            <mxPoint x="-760" y="580" as="sourcePoint" />
            <mxPoint x="-690" y="430" as="targetPoint" />
          </mxGeometry>
        </mxCell>
        <mxCell id="PqVz7o-SFoWiN2PgBtpK-109" value="" style="endArrow=none;html=1;rounded=0;entryX=0;entryY=0.5;entryDx=0;entryDy=0;strokeColor=#CCCC00;strokeWidth=2;" edge="1" parent="1" target="PqVz7o-SFoWiN2PgBtpK-81">
          <mxGeometry width="50" height="50" relative="1" as="geometry">
            <mxPoint x="-760" y="650" as="sourcePoint" />
            <mxPoint x="-680" y="440" as="targetPoint" />
          </mxGeometry>
        </mxCell>
        <mxCell id="PqVz7o-SFoWiN2PgBtpK-110" value="" style="endArrow=none;html=1;rounded=0;entryX=0;entryY=0.5;entryDx=0;entryDy=0;strokeColor=#CCCC00;strokeWidth=2;" edge="1" parent="1" target="PqVz7o-SFoWiN2PgBtpK-87">
          <mxGeometry width="50" height="50" relative="1" as="geometry">
            <mxPoint x="-760" y="730" as="sourcePoint" />
            <mxPoint x="-670" y="450" as="targetPoint" />
          </mxGeometry>
        </mxCell>
        <mxCell id="PqVz7o-SFoWiN2PgBtpK-121" value="" style="curved=1;endArrow=classic;html=1;rounded=0;entryX=0.294;entryY=0.99;entryDx=0;entryDy=0;entryPerimeter=0;strokeColor=#CCCC00;strokeWidth=2;" edge="1" parent="1" target="PqVz7o-SFoWiN2PgBtpK-72">
          <mxGeometry width="50" height="50" relative="1" as="geometry">
            <mxPoint x="-610" y="630" as="sourcePoint" />
            <mxPoint x="-410" y="500" as="targetPoint" />
            <Array as="points">
              <mxPoint x="-600" y="610" />
            </Array>
          </mxGeometry>
        </mxCell>
        <mxCell id="PqVz7o-SFoWiN2PgBtpK-124" value="" style="curved=1;endArrow=none;html=1;rounded=0;endFill=0;exitX=0.43;exitY=-0.036;exitDx=0;exitDy=0;exitPerimeter=0;strokeColor=#CCCC00;strokeWidth=2;" edge="1" parent="1" source="PqVz7o-SFoWiN2PgBtpK-93">
          <mxGeometry width="50" height="50" relative="1" as="geometry">
            <mxPoint x="-580" y="680" as="sourcePoint" />
            <mxPoint x="-610" y="590" as="targetPoint" />
            <Array as="points">
              <mxPoint x="-570" y="710" />
              <mxPoint x="-580" y="630" />
            </Array>
          </mxGeometry>
        </mxCell>
        <mxCell id="PqVz7o-SFoWiN2PgBtpK-126" value="" style="curved=1;endArrow=none;html=1;rounded=0;endFill=0;strokeColor=#CCCC00;strokeWidth=2;" edge="1" parent="1">
          <mxGeometry width="50" height="50" relative="1" as="geometry">
            <mxPoint x="-610" y="710" as="sourcePoint" />
            <mxPoint x="-610" y="590" as="targetPoint" />
            <Array as="points">
              <mxPoint x="-590" y="670" />
              <mxPoint x="-590" y="630" />
            </Array>
          </mxGeometry>
        </mxCell>
        <mxCell id="PqVz7o-SFoWiN2PgBtpK-127" value="" style="shape=table;startSize=0;container=1;collapsible=0;childLayout=tableLayout;" vertex="1" parent="1">
          <mxGeometry x="-710" y="870" width="60" height="40" as="geometry" />
        </mxCell>
        <mxCell id="PqVz7o-SFoWiN2PgBtpK-128" value="" style="shape=tableRow;horizontal=0;startSize=0;swimlaneHead=0;swimlaneBody=0;strokeColor=inherit;top=0;left=0;bottom=0;right=0;collapsible=0;dropTarget=0;fillColor=none;points=[[0,0.5],[1,0.5]];portConstraint=eastwest;" vertex="1" parent="PqVz7o-SFoWiN2PgBtpK-127">
          <mxGeometry width="60" height="40" as="geometry" />
        </mxCell>
        <mxCell id="PqVz7o-SFoWiN2PgBtpK-129" value="&lt;u&gt;Name&lt;/u&gt;" style="shape=partialRectangle;html=1;whiteSpace=wrap;connectable=0;strokeColor=inherit;overflow=hidden;fillColor=none;top=0;left=0;bottom=0;right=0;pointerEvents=1;" vertex="1" parent="PqVz7o-SFoWiN2PgBtpK-128">
          <mxGeometry width="60" height="40" as="geometry">
            <mxRectangle width="60" height="40" as="alternateBounds" />
          </mxGeometry>
        </mxCell>
        <mxCell id="PqVz7o-SFoWiN2PgBtpK-130" value="Manufacture" style="text;html=1;align=center;verticalAlign=middle;resizable=0;points=[];autosize=1;strokeColor=none;fillColor=none;" vertex="1" parent="1">
          <mxGeometry x="-720" y="840" width="90" height="30" as="geometry" />
        </mxCell>
        <mxCell id="PqVz7o-SFoWiN2PgBtpK-131" value="" style="curved=1;endArrow=classic;html=1;rounded=0;entryX=1;entryY=0.5;entryDx=0;entryDy=0;exitX=0.707;exitY=1.049;exitDx=0;exitDy=0;exitPerimeter=0;strokeWidth=2;strokeColor=#CCCC00;" edge="1" parent="1" source="PqVz7o-SFoWiN2PgBtpK-73" target="PqVz7o-SFoWiN2PgBtpK-128">
          <mxGeometry width="50" height="50" relative="1" as="geometry">
            <mxPoint x="-540" y="740" as="sourcePoint" />
            <mxPoint x="-450" y="990" as="targetPoint" />
            <Array as="points">
              <mxPoint x="-440" y="650" />
              <mxPoint x="-420" y="840" />
              <mxPoint x="-550" y="880" />
            </Array>
          </mxGeometry>
        </mxCell>
        <mxCell id="PqVz7o-SFoWiN2PgBtpK-132" value="" style="curved=1;endArrow=none;html=1;rounded=0;endFill=0;entryX=0.369;entryY=1.014;entryDx=0;entryDy=0;entryPerimeter=0;strokeColor=#CCCC00;strokeWidth=2;" edge="1" parent="1" target="PqVz7o-SFoWiN2PgBtpK-63">
          <mxGeometry width="50" height="50" relative="1" as="geometry">
            <mxPoint x="-430" y="790" as="sourcePoint" />
            <mxPoint x="-490" y="690" as="targetPoint" />
            <Array as="points">
              <mxPoint x="-420" y="730" />
              <mxPoint x="-430" y="660" />
              <mxPoint x="-440" y="610" />
            </Array>
          </mxGeometry>
        </mxCell>
        <mxCell id="PqVz7o-SFoWiN2PgBtpK-133" value="" style="endArrow=none;html=1;rounded=0;exitX=-0.002;exitY=0.249;exitDx=0;exitDy=0;exitPerimeter=0;edgeStyle=orthogonalEdgeStyle;strokeWidth=2;strokeColor=#CCCC00;" edge="1" parent="1" source="PqVz7o-SFoWiN2PgBtpK-73">
          <mxGeometry width="50" height="50" relative="1" as="geometry">
            <mxPoint x="-610" y="420" as="sourcePoint" />
            <mxPoint x="-760" y="250" as="targetPoint" />
          </mxGeometry>
        </mxCell>
      </root>
    </mxGraphModel>
  </diagram>
</mxfile>
